<svg aria-hidden="true" style="position:absolute;width:0;height:0" xmlns="http://www.w3.org/2000/svg" overflow="hidden"><defs><symbol id="icon-delivery-truck" viewBox="0 0 66 32"><path fill="var(--color1, #86adef)" d="M65.958 16.051c.211.242.328.553.328.874v10.054c0 .733-.592 1.327-1.322 1.327h-3.047c-.582 2.126-2.523 3.693-4.823 3.693s-4.242-1.567-4.823-3.693H34.627c-.582 2.126-2.523 3.693-4.823 3.693s-4.242-1.567-4.823-3.693h-2.76c-.73 0-1.322-.594-1.322-1.327V25.63h-7.655c-.73 0-1.322-.594-1.322-1.327s.592-1.327 1.322-1.327h7.655V5.772H8.182c-.73 0-1.322-.594-1.322-1.327s.592-1.327 1.322-1.327h12.717V1.327c0-.733.592-1.327 1.322-1.327h27.31c.73 0 1.322.594 1.322 1.327v5.449h6.412c.381 0 .744.165.995.453l7.7 8.823zM29.802 29.346c1.3 0 2.357-1.061 2.357-2.366s-1.058-2.366-2.357-2.366c-1.3 0-2.357 1.061-2.357 2.366s1.057 2.366 2.357 2.366zm0-7.387c2.301 0 4.242 1.567 4.824 3.693h13.581V2.654H23.542v22.998h1.438c.582-2.126 2.523-3.693 4.823-3.693zm27.291 7.387c1.3 0 2.358-1.061 2.358-2.366s-1.058-2.366-2.358-2.366-2.357 1.061-2.357 2.366 1.057 2.366 2.357 2.366zm4.823-3.694h1.725v-8.228l-6.977-7.995h-5.812v16.222h1.418c.582-2.126 2.523-3.693 4.823-3.693s4.242 1.567 4.824 3.693zM8.932 22.857H8.21c-.747 0-1.353.767-1.353 1.714s.606 1.714 1.353 1.714h.722c.747 0 1.353-.767 1.353-1.714s-.606-1.714-1.353-1.714z"/><path fill="var(--color1, #86adef)" d="M14.742 12.571H1.258C.563 12.571 0 13.211 0 14s.563 1.429 1.258 1.429h13.484c.695 0 1.258-.64 1.258-1.429s-.563-1.429-1.258-1.429z"/></symbol><symbol id="icon-favorites" viewBox="0 0 32 32"><path fill="var(--color1, #86adef)" d="M30.049 10.419c.25.786.045 1.632-.534 2.209l-5.067 5.042a.436.436 0 00-.121.381l1.196 7.12a2.16 2.16 0 01-.84 2.107c-.37.275-.803.414-1.239.414a2.08 2.08 0 01-.984-.25l-6.264-3.361a.415.415 0 00-.393 0L9.54 27.442c-.716.384-1.568.322-2.223-.164s-.976-1.293-.84-2.107l1.196-7.12a.435.435 0 00-.121-.381l-5.067-5.042c-.58-.577-.784-1.423-.534-2.209s.903-1.348 1.704-1.466l7.003-1.039a.425.425 0 00.318-.236L14.108 1.2a2.093 2.093 0 013.786 0l3.132 6.478c.062.127.18.215.318.236l7.003 1.039a2.11 2.11 0 011.704 1.466zm-6.191 15.044l-1.196-7.12a2.182 2.182 0 01.607-1.907l5.067-5.042c.17-.169.131-.365.107-.442s-.106-.259-.341-.293L21.099 9.62a2.113 2.113 0 01-1.589-1.179l-3.132-6.478c-.105-.217-.3-.24-.379-.24s-.274.023-.379.24l-3.132 6.478a2.116 2.116 0 01-1.589 1.179l-7.003 1.039c-.234.035-.316.217-.341.293s-.063.273.107.442l5.067 5.042a2.18 2.18 0 01.607 1.907l-1.196 7.12c-.04.238.104.374.168.421s.235.145.445.033l6.263-3.361a2.074 2.074 0 011.964 0l6.264 3.361c.21.113.381.015.445-.033s.208-.183.168-.421zM25.515.785c-.359-.289-.862-.201-1.123.197l-.853 1.299c-.261.397-.181.953.178 1.242.143.115.308.17.472.17a.78.78 0 00.651-.366l.853-1.299c.261-.397.181-.953-.178-1.242zM8.462 2.281L7.609.982C7.348.585 6.845.497 6.486.785s-.439.845-.178 1.242l.853 1.299a.78.78 0 00.651.367.749.749 0 00.472-.17c.359-.288.439-.845.178-1.242zM3.036 19.576c-.141-.379-.608-.586-1.043-.463l-1.421.403c-.435.123-.673.53-.531.909.114.305.438.499.787.499a.942.942 0 00.256-.036l1.421-.403c.435-.123.673-.53.531-.909zm13.272 9.347c-.51 0-.923.362-.923.808v1.46c0 .446.413.808.923.808s.923-.362.923-.808v-1.46c0-.447-.413-.808-.923-.808zm15.12-9.408l-1.421-.403c-.435-.123-.902.084-1.043.463s.097.786.531.909l1.421.403a.94.94 0 00.256.035c.349 0 .673-.194.787-.499.141-.379-.097-.786-.531-.909z"/></symbol><symbol id="icon-file" viewBox="0 0 22 32"><path fill="var(--color1, #86adef)" d="M21.526 6.26v.009l.001.013v21.096a.632.632 0 01-.639.625h-3.813v3.374a.621.621 0 01-.33.547.65.65 0 01-.649-.017l-2.433-1.493-2.432 1.493c-.197.121-.445.127-.649.017s-.33-.32-.33-.547v-3.374H.636a.632.632 0 01-.639-.625V.627c0-.345.286-.625.639-.625h14.471l.013.001h.009l.021.001a.717.717 0 01.081.01c.027.005.053.013.079.021a.636.636 0 01.091.038l.003.001.002.001a.573.573 0 01.07.043l.011.008.006.004c.022.017.044.034.064.054l5.78 5.656c.02.02.038.041.055.063l.004.005.009.012a.62.62 0 01.044.069l.001.001.001.002a.905.905 0 01.032.071l.007.019a.639.639 0 01.022.078.7.7 0 01.01.08v.02zm-5.778-4.126v3.522h3.599l-3.599-3.522zM9.82 18.91c.002.08.075.275.12.394l.001.002c.095.253.202.539.202.857s-.108.605-.203.858c-.045.119-.118.314-.119.394.05.061.223.168.329.233.228.141.486.3.673.55.189.252.266.543.334.8v.001c.03.112.078.293.118.361a.8.8 0 00.158.011c.071 0 .151-.004.235-.008h.005a5.61 5.61 0 01.296-.009c.23 0 .416.025.584.08.293.095.527.279.734.442l.003.002c.113.089.301.238.376.251.075-.013.264-.161.377-.251l.001-.001c.207-.163.442-.348.736-.444.168-.055.354-.08.584-.08.102 0 .201.005.296.009h.004c.084.004.164.008.235.008a.883.883 0 00.158-.011c.041-.069.089-.25.118-.362.068-.257.145-.548.334-.8.187-.249.445-.409.673-.55l.006-.004c.106-.066.274-.17.323-.23-.002-.08-.075-.275-.12-.394v-.001c-.095-.253-.202-.54-.202-.858s.108-.605.203-.858l.001-.002c.045-.119.117-.313.119-.393-.049-.059-.217-.164-.323-.23l-.006-.004h-.001c-.228-.141-.485-.3-.672-.549-.189-.252-.266-.543-.334-.8-.029-.112-.077-.294-.118-.362a.8.8 0 00-.158-.011c-.071 0-.151.004-.235.008h-.004a5.61 5.61 0 01-.296.009c-.23 0-.416-.025-.584-.08-.294-.096-.53-.281-.737-.445l-.002-.002c-.115-.091-.305-.24-.377-.249-.067.009-.258.16-.372.25l-.001.001c-.208.164-.443.349-.737.445-.168.055-.354.08-.584.08-.102 0-.2-.005-.295-.009h-.006c-.084-.004-.164-.008-.235-.008a.873.873 0 00-.158.011 1.911 1.911 0 00-.118.361v.002c-.068.257-.145.548-.333.8-.187.249-.445.409-.673.55-.106.065-.279.173-.329.233zm5.979 11.335v-5.624a6.24 6.24 0 01-.199-.008c-.085-.004-.164-.008-.237-.008a.662.662 0 00-.181.016c-.076.025-.221.139-.338.232l-.001.001c-.298.235-.669.527-1.178.527s-.879-.292-1.178-.527l-.001-.001c-.117-.092-.263-.207-.339-.232a.651.651 0 00-.18-.016c-.072 0-.152.004-.236.008l-.199.008v5.625l1.794-1.101a.653.653 0 01.679 0l1.794 1.101zm1.277-6.128v2.635h3.174V6.906h-5.141a.632.632 0 01-.639-.625V1.25H1.277v25.501h8.977v-2.635c-.19-.252-.269-.551-.337-.805-.035-.133-.083-.316-.127-.374s-.206-.159-.325-.232c-.314-.194-.705-.436-.861-.893-.154-.452.006-.878.135-1.221.058-.156.124-.332.124-.428s-.066-.272-.124-.428c-.129-.343-.288-.769-.135-1.221.156-.457.547-.699.861-.894.119-.073.281-.174.325-.232s.092-.241.127-.374c.092-.348.206-.781.598-1.062.311-.223.672-.249.916-.249.102 0 .2.005.294.009h.005c.085.004.165.008.236.008.113 0 .162-.01.181-.016.075-.024.219-.138.336-.23l.004-.003c.298-.235.669-.527 1.177-.527s.879.291 1.177.526l.001.001c.118.093.264.208.34.233a.655.655 0 00.181.016c.072 0 .152-.004.236-.008.096-.005.196-.01.299-.01.244 0 .605.026.916.249.391.281.505.714.597 1.062.035.133.083.316.127.374s.206.159.325.232c.314.194.706.436.861.894.154.451-.006.878-.135 1.221-.058.156-.125.332-.125.428s.066.273.125.428c.128.343.288.769.135 1.221-.155.458-.547.699-.861.894-.118.073-.281.173-.324.232s-.092.241-.127.374c-.067.254-.146.553-.336.805z"/><path fill="var(--color1, #86adef)" d="M3.535 6.4h8.058c.345 0 .625-.26.625-.582s-.28-.582-.625-.582H3.535c-.345 0-.625.26-.625.582s.28.582.625.582zm14.454 2.327H4.12c-.348 0-.629.26-.629.582s.282.582.629.582h13.869c.347 0 .629-.26.629-.582s-.282-.582-.629-.582zm-2.919 2.909H3.547c-.353 0-.639.261-.639.582s.286.582.639.582H15.07c.353 0 .639-.26.639-.582s-.286-.582-.639-.582zm2.966 0c-.32 0-.582.392-.582.873s.261.873.582.873c.321 0 .582-.392.582-.873s-.261-.873-.582-.873z"/></symbol><symbol id="icon-Shape" viewBox="0 0 25 32"><path fill="var(--color1, #86adef)" d="M5.78 0h16.861c1.117 0 2.025.92 2.025 2.052v24.092c0 1.131-.909 2.052-2.025 2.052h-1.73v2.34c0 .807-.648 1.464-1.445 1.464H1.446a1.456 1.456 0 01-1.445-1.464V5.269c0-.807.648-1.464 1.445-1.464h2.31V2.053c0-1.131.908-2.052 2.025-2.052zM1.459 30.522h17.994V11.745h-4.73c-.91 0-1.651-.75-1.651-1.672V5.281H1.459v25.241zM14.53 6.327l3.891 3.941h-3.699a.193.193 0 01-.192-.194V6.327zm6.381 20.391h1.73a.571.571 0 00.567-.574V2.052a.57.57 0 00-.567-.574H5.78a.571.571 0 00-.567.574v1.752h8.588a.72.72 0 01.516.217l6.381 6.464a.742.742 0 01.212.505l.001.017v15.711z"/></symbol><symbol id="icon-crane" viewBox="0 0 32 32"><path fill="var(--color1, #86adef)" d="M27.2 15.467V8h4.267A.533.533 0 0032 7.467V5.334a.617.617 0 00-.012-.059.49.49 0 00-.059-.192.509.509 0 00-.297-.25c-.007-.002-.013-.006-.019-.009-.008-.004-.016-.008-.025-.01L11.321.014a.556.556 0 00-.122-.013H9.066a.53.53 0 00-.184.037l-.004.001-.038.015-.017.007-.019.008-8.533 4.8a.606.606 0 00-.074.06.496.496 0 00-.05.041.527.527 0 00-.107.157v.006a.53.53 0 00-.039.193.03.03 0 00-.002.009v2.133c0 .295.239.533.533.533h7.467v9.912L6.022 19.89c-.1.1-.156.236-.156.377V28.8H4.799V32h10.667v-3.2h-1.067v-8.533a.534.534 0 00-.156-.377l-1.977-1.977V8h10.667v7.467c0 .295.239.533.533.533h1.067v1.6c0 .295.239.533.533.533a1.067 1.067 0 11-1.067 1.067v-.533h-1.067v.533a2.126 2.126 0 001.116 1.863l-4.003 4.003h-1.379a.533.533 0 00-.533.533v4.8c0 .295.239.533.533.533h12.8a.533.533 0 00.533-.533v-4.8a.533.533 0 00-.533-.533h-1.379l-4.003-4.003a2.125 2.125 0 00-.485-3.93v-1.134h1.067a.533.533 0 00.533-.533zm3.733-9.6v1.067H27.2V5.867h3.733zm0 20.266v3.733H19.2v-3.733h11.733zm-5.866-4.579l3.513 3.512h-7.025l3.513-3.512zm1.066-8.754H24V8h2.133v4.8zM24 6.933V5.866h2.133v1.067H24zM9.6 1.067h1.067V4.8H9.6V1.067zm1.6 4.8v.846l-.221.221H9.066V5.867h2.133zm0 6.179l-1.913-1.913L11.2 8.22v3.825zM9.913 8l-.846.846V8h.846zm-.846 3.421l1.913 1.912-1.913 1.913v-3.825zm2.133 6.712v.313l-1.913-1.913 1.913-1.912v3.512zm-2.133 0v-.313l1.913 1.913-1.913 1.913v-3.513zm2.133 6.713l-1.913-1.913 1.913-1.912v3.825zm-2.133-.625l1.913 1.912-1.913 1.913v-3.825zM11.2 28.8H9.821l1.379-1.379V28.8zM8.533 1.445V4.8H2.569l5.964-3.355zM1.067 5.867H8v1.067H1.067V5.867zm5.866 14.621L8 19.421V28.8H6.933v-8.312zM14.4 30.933H5.867v-1.067H14.4v1.067zm-1.067-10.445V28.8h-1.067v-9.379l1.067 1.067zM12.267 6.933V5.866h10.667v1.067H12.267zM11.733 4.8V1.207L26.9 4.8H11.733zM24 13.867h2.133v1.067H24v-1.067z"/></symbol><symbol id="icon-curve" viewBox="0 0 32 32"><path fill="var(--color1, #86adef)" d="M15.38 3.25c.457-.455 1.268-.453 1.723-.001l12.116 12.123c.227.229.357.543.357.863s-.13.634-.355.861L17.105 29.219c-.229.227-.542.357-.862.357s-.633-.13-.861-.356L3.266 17.097c-.227-.229-.357-.543-.357-.863s.13-.634.356-.861L15.381 3.25zM4.289 16.234l11.953 11.96 11.953-11.96-11.953-11.96-11.953 11.96z"/><path fill="var(--color1, #86adef)" d="M10.724 10.167c-.092-.21-.072-.453.05-.646s.333-.309.559-.309H18c.246 0 .472.138.588.359s.103.489-.033.697l-.942 1.438 1.049.712a6.13 6.13 0 012.672 5.083v4.608a.673.673 0 01-.667.679H18a.673.673 0 01-.667-.679v-4.608c0-.682-.333-1.315-.891-1.694l-1.049-.712-.839 1.282a.663.663 0 01-1.164-.1l-2.667-6.109zm5.41 1.351l.62-.948H12.36l1.758 4.028.537-.821a.665.665 0 01.424-.289.654.654 0 01.501.101l1.604 1.088a3.404 3.404 0 011.484 2.824v3.93h1.333v-3.93a4.767 4.767 0 00-2.078-3.953l-1.604-1.088a.682.682 0 01-.185-.941z"/><path fill="var(--color1, #86adef)" d="M18.747 1.138l12.115 12.115C31.585 13.976 32 14.978 32 16s-.415 2.024-1.138 2.747L18.747 30.862C18.024 31.585 17.022 32 16 32s-2.024-.415-2.747-1.138L1.138 18.747C.415 18.024 0 17.022 0 16s.415-2.024 1.138-2.747L13.253 1.138C13.976.415 14.989 0 16.001 0s2.023.415 2.747 1.138zm-.942 28.781L29.92 17.804c.475-.475.747-1.133.747-1.805s-.272-1.329-.747-1.805L17.805 2.079c-.475-.475-1.133-.747-1.805-.747s-1.329.272-1.805.747L2.08 14.194c-.475.475-.747 1.133-.747 1.805s.272 1.329.747 1.805l12.115 12.115c.95.951 2.659.951 3.609 0z"/></symbol><symbol id="icon-engineer" viewBox="0 0 28 32"><path fill="var(--color1, #86adef)" d="M27.936 15.182a.659.659 0 01.406.607v3.464c0 .364-.294.66-.655.66h-.852v1.32c0 .364-.294.66-.656.66h-2.354a10.02 10.02 0 01-.977 2.362l1.665 1.676a.663.663 0 010 .93l-2.786 2.804a.652.652 0 01-.924 0l-1.665-1.676a9.865 9.865 0 01-2.347.983v2.369c0 .364-.294.66-.656.66h-3.934a.659.659 0 01-.656-.66v-2.369a9.864 9.864 0 01-2.341-.983l-1.665 1.676a.652.652 0 01-.924 0l-2.786-2.804a.663.663 0 010-.93l1.665-1.676a10.038 10.038 0 01-.977-2.362H2.163a.658.658 0 01-.655-.66v-1.32H.656a.659.659 0 01-.656-.66v-3.464c0-.264.157-.504.4-.607l1.252-.534v-.877C1.634 8.427 4.985 3.658 9.998 1.895V.661c0-.364.294-.66.655-.66h7.015c.362 0 .655.296.655.66v1.227c5.013 1.764 8.364 6.532 8.346 11.876v.871l1.265.548zM11.297 1.326l.013 11.025h5.704V1.326h-5.717zm12.05 19.246h2.183l-.006-.66h-5.999a5.419 5.419 0 01-4.712 4.742c-2.962.362-5.655-1.761-6.014-4.742H2.807v.66H4.99a.658.658 0 01.656.521 8.734 8.734 0 001.219 2.89.665.665 0 01-.085.825l-1.567 1.577 1.855 1.867 1.567-1.577a.654.654 0 01.82-.086c.88.577 1.858.986 2.885 1.207a.659.659 0 01.518.66v2.243h2.622v-2.223a.659.659 0 01.518-.66 8.585 8.585 0 002.885-1.207.651.651 0 01.819.086l1.567 1.577 1.875-1.874-1.567-1.577a.662.662 0 01-.085-.825 8.715 8.715 0 001.2-2.903.657.657 0 01.656-.521zm-13.211-.659h-.006a4.104 4.104 0 003.386 3.407c2.23.363 4.331-1.163 4.692-3.407h-8.071zm-8.831-1.32h25.733v-2.356l-1.265-.548a.658.658 0 01-.4-.607v-1.32c.018-4.614-2.773-8.769-7.035-10.471v9.719c0 .364-.294.66-.656.66h-7.028a.658.658 0 01-.655-.66V3.291C5.744 4.993 2.956 9.141 2.97 13.749v1.32a.658.658 0 01-.4.607l-1.265.548v2.369z"/></symbol><symbol id="icon-excavator" viewBox="0 0 32 32"><path fill="var(--color1, #86adef)" d="M16.618 10.667h2.256c.287 0 .519.235.519.525v5.253c0 .29-.233.525-.519.525H12.64a.523.523 0 01-.52-.525v-1.231c0-.139.055-.273.152-.371l3.978-4.022a.513.513 0 01.367-.154zm-3.458 5.252h5.195v-4.202h-1.521l-3.673 3.714v.488zM16 27.879a2.182 2.182 0 114.364 0 2.182 2.182 0 01-4.364 0zm1.091 0a1.092 1.092 0 102.183-.001 1.092 1.092 0 00-2.183.001zm5.697 0a2.182 2.182 0 114.364 0 2.182 2.182 0 01-4.364 0zm1.091 0a1.091 1.091 0 102.182 0 1.091 1.091 0 00-2.182 0zm-13.697 0a2.182 2.182 0 114.364 0 2.182 2.182 0 01-4.364 0zm1.091 0a1.091 1.091 0 102.182 0 1.091 1.091 0 00-2.182 0z"/><path fill="var(--color1, #86adef)" d="M31.467 22.4a.533.533 0 00.533-.533v-5.333a.533.533 0 00-.533-.533H21.334V9.068a.533.533 0 00-.533-.533h-5.333a.534.534 0 00-.377.156l-1.223 1.223L4.112.158a.534.534 0 00-.377-.156h-3.2a.533.533 0 00-.533.533v18.133c0 .178.089.345.237.444l4.8 3.2a.534.534 0 00.813-.314l2.134-8.533a.533.533 0 00-1.034-.259l-.432 1.73H2.757L4.103 6.18l6.751 6.75-1.095 1.095c-.1.1-.156.236-.156.377v6.933H9.07a.533.533 0 00-.533.534v2.709a3.733 3.733 0 00.533 7.424h19.2a3.732 3.732 0 00.533-7.424v-2.176h2.667zm-.534-5.333v4.267h-9.6v-4.267h9.6zM1.067 18.381V16h5.184L5 21.003l-3.933-2.622zM4.11 4.679a.534.534 0 00-.906.296l-1.528 9.959h-.609V1.067h2.446l9.6 9.6-1.507 1.507-7.495-7.495zm7.872 8.626L15.687 9.6h4.579v11.733h-9.6v-6.712l1.316-1.316zm18.951 14.962a2.67 2.67 0 01-2.667 2.667h-19.2a2.667 2.667 0 110-5.334h19.2a2.67 2.67 0 012.667 2.667zM9.6 24.533V22.4h18.133v2.133H9.6z"/></symbol><symbol id="icon-factory" viewBox="0 0 34 32"><path fill="var(--color1, #86adef)" d="M26 6.5a.503.503 0 00.5-.5.504.504 0 00-.5-.5.504.504 0 00-.354.146.504.504 0 000 .708A.504.504 0 0026 6.5zm1.788 2.823c-.203-.103-.447-.097-.644.016s-.318.316-.318.536v1.691l-4.403-2.243c-.203-.103-.447-.097-.644.016s-.318.316-.318.536v1.691l-4.403-2.243c-.203-.103-.447-.097-.644.016s-.318.316-.318.536v6.875H6.02V9.875c0-.345-.293-.625-.654-.625h-.938v-.885c0-.15.127-.271.284-.271.361 0 .654-.28.654-.625s-.293-.625-.654-.625c-.878 0-1.593.682-1.593 1.521v.885H1.964V6.31c0-1.19 1.014-2.159 2.26-2.159h1.057c-.04.171-.061.347-.061.524 0 1.317 1.122 2.388 2.5 2.388h2.47c.361 0 .654-.28.654-.625s-.293-.625-.654-.625H7.72c-.657 0-1.191-.51-1.191-1.138 0-.317.137-.627.376-.851.23-.215.527-.33.839-.325.173.003.339.041.494.112.165.076.355.083.525.018s.304-.194.37-.357c.487-1.209 1.725-2.022 3.082-2.022 1.369 0 2.589.821 3.076 2.009-.2.105-.389.23-.561.373a3.094 3.094 0 00-.71.839.61.61 0 00.256.849.674.674 0 00.889-.245c.11-.189.252-.357.424-.5a1.961 1.961 0 011.259-.449c1.059 0 1.921.824 1.921 1.835 0 .345.293.625.654.625h3.569c.361 0 .654-.28.654-.625s-.293-.625-.654-.625h-2.981c-.303-1.403-1.607-2.46-3.164-2.46-.102 0-.203.005-.304.014-.656-1.706-2.385-2.889-4.329-2.889-1.686 0-3.241.899-4.042 2.287a2.57 2.57 0 00-.403-.038 2.52 2.52 0 00-1.746.652H4.225C2.257 2.902.657 4.431.657 6.311v2.94c-.361 0-.654.28-.654.625v21.5c0 .345.293.625.654.625h32.191c.361 0 .654-.28.654-.625V12.609a.622.622 0 00-.347-.552L27.79 9.324zM4.711 13v15.25H1.309V13h3.402zm0-1.25H1.309V10.5h3.402v1.25zm0 17.75v1.25H1.309V29.5h3.402zm12.039 1.25H6.02V20.5h5.889c.361 0 .654-.28.654-.625s-.293-.625-.654-.625H6.02V18h19.629v12.75h-8.898zm10.207 0V17.375c0-.345-.293-.625-.654-.625h-8.898v-5.834l4.403 2.243c.203.103.447.097.644-.016s.318-.316.318-.536v-1.691l4.403 2.243c.203.104.447.097.644-.015s.318-.316.318-.536v-1.691l4.057 2.066V30.75h-5.234z"/><path fill="var(--color1, #86adef)" d="M7.662 22h3.176c.366 0 .662.296.662.662v3.177a.662.662 0 01-.662.662H7.662A.662.662 0 017 25.839v-3.177c0-.366.296-.662.662-.662zm.662 3.176h1.853v-1.853H8.324v1.853zM14.162 22h3.176c.366 0 .662.296.662.662v3.177a.662.662 0 01-.662.662h-3.177a.662.662 0 01-.662-.662v-3.177c0-.366.296-.662.662-.662zm.662 3.176h1.853v-1.853h-1.853v1.853zM20.662 22h3.177c.366 0 .662.296.662.662v3.177a.662.662 0 01-.662.662h-3.177a.662.662 0 01-.662-.662v-3.177c0-.366.296-.662.662-.662zm.662 3.176h1.853v-1.853h-1.853v1.853zM14 20a.503.503 0 00.5-.5.5.5 0 10-.5.5z"/></symbol><symbol id="icon-fire-extinguisher" viewBox="0 0 19 32"><path fill="var(--color1, #86adef)" d="M19.002.618a.516.516 0 00-.441-.093l-7.053 1.752A2.933 2.933 0 008.647 0 2.932 2.932 0 005.76 2.403H3.625c-1.999 0-3.626 1.561-3.626 3.479 0 .282.23.511.514.511s.514-.229.514-.511c0-1.355 1.165-2.458 2.598-2.458h2.089v1.021H3.625c-.284 0-.514.229-.514.511s.23.511.514.511h2.089v2.739a7.038 7.038 0 00-2.874 2.395 6.932 6.932 0 00-1.246 3.976V31.49c0 .282.23.511.514.511h13.076a.513.513 0 00.514-.511V14.577a6.932 6.932 0 00-1.246-3.976 7.042 7.042 0 00-2.873-2.395V6.37l6.981 1.734a.528.528 0 00.441-.093.509.509 0 00.198-.402V1.022a.507.507 0 00-.198-.402zm-10.354.403c1.05 0 1.905.849 1.905 1.892v5.118H6.744V2.913a1.9 1.9 0 011.905-1.892zM2.623 27.802v3.176h12.048v-3.176H2.623zm12.026-13.736H6.221c-.284 0-.514.229-.514.511s.23.511.514.511h8.45v11.694H2.623V15.088h1.542c.284 0 .514-.229.514-.511s-.23-.511-.514-.511h-1.52a5.955 5.955 0 013.687-5.013h4.63a5.955 5.955 0 013.687 5.013zM11.58 5.317l6.592 1.637V1.675L11.58 3.312v2.005z"/><path fill="var(--color1, #86adef)" d="M8.457 25.6c-1.086 0-2.035-.378-2.744-1.095-.734-.741-1.15-1.795-1.141-2.893.016-2.034 1.455-3.852 1.516-3.929a.503.503 0 01.807.025l.102.144c.248-.541.614-1.2 1.098-1.699a.506.506 0 01.726 0c.483.499.85 1.159 1.098 1.699l.102-.144a.507.507 0 01.808-.025c.061.076 1.5 1.894 1.516 3.929.008 1.097-.408 2.152-1.141 2.893-.709.716-1.658 1.095-2.744 1.095zm-1.848-6.54l-.12-.171c-.378.618-.897 1.661-.906 2.731-.006.829.303 1.62.848 2.171.515.52 1.216.795 2.026.795s1.511-.275 2.026-.795c.545-.551.854-1.342.848-2.171-.008-1.07-.528-2.113-.906-2.731l-.12.171c-.149.211-.217.307-.416.346a.506.506 0 01-.571-.32l-.011-.033c-.091-.272-.382-1.077-.85-1.747-.468.67-.759 1.475-.85 1.747l-.011.033a.506.506 0 01-.444.329c-.281.015-.396-.147-.543-.355z"/></symbol><symbol id="icon-fireman" viewBox="0 0 28 32"><path fill="var(--color1, #86adef)" d="M26.865 25.133a5.685 5.685 0 00-3.797-4.479l-4.432-1.489v-.664h-1.03v.881l-3.605 5.452-3.605-5.452v-.881h-1.03v.664l-4.432 1.489a5.686 5.686 0 00-3.797 4.479L.001 32h28l-1.135-6.867zM4.778 30.962H1.217l.165-1.002 3.452.435-.056.567zm-3.227-2.028l.177-1.073 3.315.418-.107 1.082-3.385-.427zm11.934 2.028H5.813l.458-4.621-1.025-.103-.1 1.009-3.248-.409.253-1.533a4.652 4.652 0 013.106-3.665l3.676-1.235-1.773 4.023 6.324 3.718v2.817zm-5.008-6.965l1.493-3.386 3.515 5.315v1.016l-5.008-2.945zm6.038 1.93l3.515-5.315 1.493 3.386-5.008 2.945v-1.016zm7.214.413l.458 4.621h-3.551v-4.154h-1.03v4.154h-3.09v-2.817l6.323-3.719-1.773-4.023 3.676 1.235a4.654 4.654 0 013.107 3.666l.253 1.533-3.248.409-.1-1.009-1.025.103zm1.227 1.939l3.315-.418.177 1.073-3.385.427-.107-1.082zm.21 2.116l3.452-.435.165 1.002h-3.561l-.056-.567z"/><path fill="var(--color1, #86adef)" d="M5.471 9.757h-.62a1.55 1.55 0 01-1.099-.451l-1.251-1.24.733-.726 1.251 1.24c.096.096.23.15.366.15h1.126V7.703C5.977 3.456 9.464 0 13.751 0s7.774 3.455 7.774 7.703V8.73h1.126c.136 0 .27-.055.366-.15l1.251-1.24.733.726-1.251 1.24a1.55 1.55 0 01-1.099.451h-.62c.329.43.532.96.532 1.541 0 1.318-1.011 2.394-2.302 2.539a5.613 5.613 0 01-1.441 2.409l-2.021 2.003a2.586 2.586 0 01-1.833.752h-2.429a2.589 2.589 0 01-1.833-.752l-2.021-2.003a5.613 5.613 0 01-1.441-2.409c-1.292-.145-2.302-1.221-2.302-2.539 0-.58.203-1.11.531-1.541zm12.614 5.762a4.571 4.571 0 001.366-3.268V9.756H8.049v2.495c0 1.235.486 2.395 1.366 3.268l2.021 2.003a1.55 1.55 0 001.1.451h2.429c.416 0 .806-.16 1.1-.451l2.021-2.003zM10.19 4.864l3.561-2.205 3.561 2.205-.867 3.865h-5.388l-.867-3.865zm10.273 7.887a1.539 1.539 0 001.061-1.453 1.54 1.54 0 00-1.037-1.446v2.4c0 .168-.01.334-.024.499zM7.013 7.703h1.555V6.676H7.101c.501-3.194 3.288-5.649 6.65-5.649s6.148 2.455 6.649 5.649h-1.467v1.027h1.555V8.73h-2.982l.976-4.351-4.732-2.93-4.732 2.93.976 4.351H7.012V7.703zm0 4.548v-2.4a1.54 1.54 0 00-1.037 1.446 1.54 1.54 0 001.061 1.454 5.915 5.915 0 01-.024-.5z"/><path fill="var(--color1, #86adef)" d="M12 6.5h4v1h-4v-1zm5 16h1v1h-1v-1zM15.5 29h1v1h-1v-1zm-3-9h3v1h-3v-1z"/></symbol><symbol id="icon-plug" viewBox="0 0 32 32"><path fill="var(--color1, #86adef)" d="M5.277 24.217c.728 0 1.412.275 1.927.774a2.589 2.589 0 010 3.736c-.531.515-1.229.773-1.927.773s-1.395-.258-1.927-.773a2.587 2.587 0 01-.276-3.423 15.502 15.502 0 01-3.072-9.019 15.504 15.504 0 013.04-9.523c.206-.28.608-.346.897-.146s.357.589.151.87C.375 12.541.388 19.452 4.059 24.496a2.79 2.79 0 011.218-.278zM4.26 27.846c.561.544 1.473.544 2.034 0s.561-1.429 0-1.973c-.272-.264-.633-.409-1.017-.409s-.745.145-1.017.409a1.367 1.367 0 000 1.973zm20.249.339a.623.623 0 11.732 1.011 15.838 15.838 0 01-6.481 2.755 2.963 2.963 0 01-2.436-.64 2.94 2.94 0 01-1.062-2.266V24.47h-.07a1.313 1.313 0 01-1.313-1.311v-1.054a5.627 5.627 0 01-3.627-5.25V13.9a2.376 2.376 0 01-1.751-2.288c0-1.202.901-2.197 2.064-2.351V5.37a1.877 1.877 0 013.752 0v3.87h3.127V5.37a1.877 1.877 0 013.752 0v3.891a2.377 2.377 0 012.064 2.351 2.376 2.376 0 01-1.751 2.288v2.955a5.627 5.627 0 01-3.627 5.25v1.054c0 .723-.589 1.311-1.313 1.311h-.055v4.575c0 .506.223.983.613 1.307.392.327.906.462 1.411.37a14.577 14.577 0 005.973-2.539zM19.318 4.748a.625.625 0 00-.625.624v3.87h1.251v-3.87a.626.626 0 00-.625-.624zm-7.504.624a.626.626 0 011.25 0v3.87h-1.251v-3.87zm-.938 5.119c-.621 0-1.126.504-1.126 1.123s.505 1.123 1.126 1.123h10.005c.621 0 1.126-.504 1.126-1.123s-.505-1.123-1.126-1.123H10.876zm.626 6.366v-2.871h8.755v2.871c0 2.409-1.964 4.369-4.377 4.369s-4.377-1.96-4.377-4.369zm4.394 6.366h.671a.063.063 0 00.063-.062v-.737a5.635 5.635 0 01-1.5 0v.737c0 .034.028.062.063.062h.68l.016-.001h.009zm11.366 3.478a.75.75 0 00-1.044.02l-.017.018a.75.75 0 001.08 1.038l.017-.018a.75.75 0 00-.037-1.059z"/><path fill="var(--color1, #86adef)" d="M31.958 14.997a16.318 16.318 0 00-4.639-10.283A15.842 15.842 0 0017.289.05 15.914 15.914 0 006.764 2.961c-.282.202-.348.597-.149.883s.589.354.87.152C13.283-.163 21.431.53 26.436 5.61a15.025 15.025 0 011.487 19.383.639.639 0 00.135.885.618.618 0 00.873-.138 16.386 16.386 0 003.026-10.743zM5.78 4.716a.744.744 0 00-1.052.005l-.012.012A.744.744 0 005.773 5.78l.012-.012a.744.744 0 00-.005-1.052z"/><path fill="var(--color1, #86adef)" d="M17.415 16.326a.63.63 0 00-.542-.305h-.448l.826-1.023c.215-.266.169-.653-.102-.864s-.666-.166-.881.101l-1.631 2.02c-.149.185-.178.438-.073.65s.324.347.565.347h.669l-.768 1.33a.609.609 0 00.237.839.639.639 0 00.856-.232l1.299-2.249a.604.604 0 00-.004-.613z"/></symbol><symbol id="icon-settings" viewBox="0 0 32 32"><path fill="var(--color1, #86adef)" d="M13.85 18.866c0-3.029 2.464-5.493 5.493-5.493s5.493 2.464 5.493 5.493c0 3.029-2.464 5.493-5.493 5.493s-5.493-2.464-5.493-5.493zm1.249 0c0 2.34 1.904 4.244 4.244 4.244s4.244-1.904 4.244-4.244-1.904-4.244-4.244-4.244-4.244 1.904-4.244 4.244z"/><path fill="var(--color1, #86adef)" d="M31.388 27.96l-1.689-1.689a.617.617 0 00-.871.871l1.689 1.689a.853.853 0 010 1.211.857.857 0 01-1.211 0l-4.725-4.725a7.993 7.993 0 00-.463-12.807V9.818a.616.616 0 00-.616-.616h-1.555a9.921 9.921 0 00-.975-2.35l1.101-1.101a.617.617 0 000-.871l-2.834-2.834a.617.617 0 00-.871 0l-1.101 1.101a9.911 9.911 0 00-2.351-.975V.617A.616.616 0 0014.3.001h-4.008a.616.616 0 00-.616.616v1.552a9.895 9.895 0 00-2.355.974L6.225 2.047a.617.617 0 00-.871 0L2.52 4.882c-.24.24-.24.63 0 .871l1.093 1.093a9.932 9.932 0 00-.979 2.358H1.09a.616.616 0 00-.616.616v4.008c0 .34.276.616.616.616h1.54c.223.828.55 1.619.978 2.362l-1.089 1.089c-.24.24-.24.63 0 .871L5.353 21.6c.24.24.63.24.871 0l1.089-1.089a9.933 9.933 0 002.362.978v1.541c0 .34.276.616.616.616h2.693a8.001 8.001 0 0010.563 2.383l4.886 4.887c.407.407.942.61 1.476.61s1.069-.203 1.476-.61c.394-.394.612-.919.612-1.477s-.217-1.082-.612-1.476zm-20.479-5.548v-1.409c0-.29-.202-.54-.485-.602a8.704 8.704 0 01-2.869-1.187.616.616 0 00-.768.082l-.995.995-1.964-1.964.995-.995a.615.615 0 00.082-.768 8.683 8.683 0 01-1.187-2.869.615.615 0 00-.602-.485H1.707v-2.777h1.411c.289 0 .54-.202.602-.484a8.718 8.718 0 011.189-2.865.616.616 0 00-.082-.769l-1-1 1.964-1.964 1.002 1.002a.616.616 0 00.768.083 8.69 8.69 0 012.862-1.183.615.615 0 00.485-.602v-1.42h2.777v1.423c0 .289.202.54.485.602a8.704 8.704 0 012.858 1.185.616.616 0 00.768-.082l1.007-1.007 1.964 1.964-1.007 1.007a.616.616 0 00-.083.768 8.695 8.695 0 011.185 2.858.615.615 0 00.602.484h1.423v1.374a7.963 7.963 0 00-4.107-.686 6.484 6.484 0 00-1.92-3.955 6.487 6.487 0 00-4.568-1.865 6.533 6.533 0 00-6.526 6.526 6.535 6.535 0 005.831 6.489 7.956 7.956 0 00.687 4.095H10.91zm-.879-10.584c0-1.247 1.015-2.262 2.262-2.262s2.262 1.015 2.262 2.262-1.015 2.262-2.262 2.262-2.262-1.015-2.262-2.262zm2.262-3.494a3.497 3.497 0 00-3.493 3.493 3.497 3.497 0 003.707 3.486 7.955 7.955 0 00-.697 1.786 5.301 5.301 0 01-4.812-5.272 5.3 5.3 0 015.295-5.295c2.731 0 5.019 2.123 5.271 4.804a7.929 7.929 0 00-1.784.7 3.497 3.497 0 00-3.486-3.701zm7.271 3.98c3.734 0 6.772 3.038 6.772 6.773s-3.038 6.773-6.772 6.773c-3.734 0-6.772-3.038-6.772-6.773s3.038-6.773 6.772-6.773z"/><path fill="var(--color1, #86adef)" d="M19.712 16.239a.608.608 0 100 1.216c.838 0 1.52.682 1.52 1.52a.608.608 0 101.216 0 2.738 2.738 0 00-2.735-2.735zm7.034 8.836a.716.716 0 101.432-.001.716.716 0 00-1.432.001z"/></symbol><symbol id="icon-toxic-waste" viewBox="0 0 35 32"><path fill="var(--color1, #86adef)" d="M35.394 15.999c0-.362-.157-.7-.424-.938V9.469c.261-.193.424-.497.424-.833 0-.43-.267-.808-.666-.967a.534.534 0 00-.283-.08H23.01V2.241a1.21 1.21 0 00.561-1.018A1.22 1.22 0 0022.78.088.539.539 0 0022.485 0H6.864c-.29 0-.525.228-.525.51s.235.51.525.51h15.473a.324.324 0 01.025.007c.094.022.16.103.16.196s-.066.175-.16.197a.514.514 0 00-.402.495v8.16c0 .19.108.364.281.452s.28.259.28.447-.107.359-.28.447-.281.262-.281.452v8.255c0 .19.108.364.281.452s.28.259.28.447-.107.36-.28.447-.281.262-.281.452v8.16c0 .235.166.44.402.495.094.022.16.103.16.197s-.066.174-.16.196l-.025.007H1.26c-.115 0-.209-.091-.209-.203s.094-.203.21-.203c.29 0 .525-.228.525-.51v-8.069c0-.223-.15-.42-.369-.487s-.366-.26-.366-.482c0-.223.147-.416.366-.482s.369-.264.369-.487v-8.114c0-.223-.15-.421-.369-.487s-.366-.26-.366-.482c0-.223.147-.416.366-.482s.369-.264.369-.487V1.937a.519.519 0 00-.526-.51c-.115 0-.209-.091-.209-.203s.094-.203.21-.203h2.856c.29 0 .525-.228.525-.51s-.235-.51-.525-.51H1.26C.565.001.001.549.001 1.223c0 .492.301.918.735 1.111v7.348c-.452.273-.735.755-.735 1.292s.284 1.019.735 1.292v7.469c-.452.273-.735.755-.735 1.292s.284 1.019.735 1.292v7.348a1.223 1.223 0 00-.735 1.112c0 .674.565 1.222 1.26 1.222h28.191c.29 0 .525-.228.525-.51s-.235-.51-.525-.51h-5.897a1.21 1.21 0 00-.543-1.221v-5.557h2.15c.29 0 .525-.228.525-.51s-.235-.51-.525-.51h-2.15v-.988c.352-.286.561-.711.561-1.168s-.209-.882-.561-1.168v-3.453h9.147c.29 0 .525-.228.525-.51s-.235-.51-.525-.51h-9.147v-3.244c.352-.286.561-.711.561-1.168s-.209-.882-.561-1.168V8.608h11.306l.005.001c.006.001.022.009.022.026s-.016.026-.022.027a.513.513 0 00-.402.496v6.161c0 .189.108.364.281.452a.251.251 0 01.001.454.509.509 0 00-.282.452v6.234c0 .19.109.364.282.452a.27.27 0 01.103.092.246.246 0 01.039.134.257.257 0 01-.143.228.508.508 0 00-.281.451v6.162c0 .235.166.44.402.496.008.002.013.007.015.009a.025.025 0 01.007.018c0 .018-.016.026-.022.027l-.006.001h-2.159c-.29 0-.525.228-.525.51s.235.51.525.51h2.288a.534.534 0 00.283-.08c.399-.16.666-.538.666-.968a1.031 1.031 0 00-.424-.832v-5.593a1.256 1.256 0 00.228-1.61 1.29 1.29 0 00-.228-.267v-5.714c.267-.238.424-.576.424-.939z"/><path fill="var(--color1, #86adef)" d="M32.97 23.758c0-.268-.233-.485-.519-.485h-4.78c-.287 0-.519.217-.519.485s.232.485.519.485h4.78c.287 0 .519-.217.519-.485zM20.364 10.746a.524.524 0 00-.528-.519h-3.209a7.476 7.476 0 00-4.505-1.5 7.46 7.46 0 00-4.5 1.5H4.408c-.292 0-.528.232-.528.519s.237.519.528.519h2.097C5.39 12.538 4.715 14.193 4.715 16s.675 3.462 1.79 4.735H4.408c-.292 0-.528.232-.528.519s.237.519.528.519h3.214a7.46 7.46 0 004.5 1.5 7.488 7.488 0 004.511-1.5h3.203c.292 0 .528-.232.528-.519s-.236-.519-.528-.519H17.75a7.218 7.218 0 001.558-2.962c.071-.278-.101-.56-.384-.629s-.57.099-.641.377a6.196 6.196 0 01-2.127 3.299.494.494 0 00-.087.07 6.422 6.422 0 01-3.946 1.346c-3.502 0-6.35-2.797-6.35-6.235s2.849-6.235 6.35-6.235c1.583 0 3.1.575 4.27 1.62a6.177 6.177 0 012.048 3.977c.03.285.288.493.579.463s.502-.284.472-.568a7.172 7.172 0 00-1.749-3.992h2.093a.524.524 0 00.529-.519z"/><path fill="var(--color1, #86adef)" d="M7.479 15.087c-.187 0-.368.075-.497.205s-.201.309-.194.49c.062 1.63.952 3.123 2.382 3.994a.71.71 0 00.532.083.692.692 0 00.433-.315l1.333-2.236c.269.06.55.06.819 0l1.334 2.236a.688.688 0 00.598.334.708.708 0 00.367-.102c1.43-.871 2.321-2.364 2.382-3.994.007-.181-.064-.36-.193-.49s-.311-.205-.498-.205h-2.666a1.75 1.75 0 00-.41-.687l1.334-2.237c.093-.156.117-.346.065-.519s-.176-.322-.342-.408a5.242 5.242 0 00-4.761 0c-.166.085-.29.234-.342.408s-.028.363.066.519l1.334 2.237a1.75 1.75 0 00-.409.686H7.479zm1.94 3.613a3.882 3.882 0 01-1.544-2.59h2.27c.081.255.222.492.41.687L9.42 18.701zm2.081-2.466c-.842-.472-.096-1.734.757-1.27.848.462.088 1.745-.757 1.27zm2.838 2.467l-1.135-1.904c.188-.195.33-.433.41-.687h2.27a3.884 3.884 0 01-1.545 2.591zm-.915-6.716a4.165 4.165 0 00-3.089.001l1.135 1.903c.268-.06.552-.06.82 0l1.135-1.903z"/></symbol><symbol id="icon-tracktor" viewBox="0 0 37 32"><path fill="var(--color1, #86adef)" d="M11.789 9.552a1.19 1.19 0 011.152.892l.849 3.184c.121.382.061.764-.182 1.146a1.058 1.058 0 01-.91.509H7.422c-.667 0-1.213-.573-1.213-1.274v-3.184c0-.7.546-1.274 1.213-1.274h4.367zm-4.367 1.274v3.184h5.276l-.91-3.184H7.421zm1.414 17.353c-.43 0-.716.287-.716.716s.287.716.716.716c.43 0 .716-.287.716-.716s-.287-.716-.716-.716zm2.865 0c-.43 0-.716.287-.716.716s.287.716.716.716c.43 0 .716-.287.716-.716s-.287-.716-.716-.716zm3.344 0c-.43 0-.716.287-.716.716s.287.716.716.716c.43 0 .716-.287.716-.716s-.287-.716-.716-.716zm2.865 0c-.43 0-.716.287-.716.716s.287.716.716.716c.43 0 .716-.287.716-.716s-.287-.716-.716-.716zm3.344 0c-.43 0-.716.287-.716.716s.287.716.716.716c.43 0 .716-.287.716-.716s-.287-.716-.716-.716z"/><path fill="var(--color1, #86adef)" d="M25.858 25.815h.84c1.739 0 3.105 1.361 3.105 3.093s-1.366 3.093-3.105 3.093H3.104C1.365 32.001 0 30.64 0 28.908s1.366-3.093 3.104-3.093V8.496a2.486 2.486 0 012.484-2.474h1.863V4.785c0-1.361 1.118-2.474 2.484-2.474s2.484 1.113 2.484 2.474v1.237h1.614c1.18 0 2.173.804 2.422 1.917l1.251 5.576L29.742.826c.931-.99 2.484-1.113 3.539-.247a2.636 2.636 0 01.866 2.9.796.796 0 01.003.069v8.094c1.756.297 3.105 1.828 3.105 3.658 0 .804-.248 1.608-.745 2.227-.124.186-.31.247-.497.247-.124 0-.248-.062-.372-.123h-.001c-.248-.186-.31-.619-.124-.866.31-.433.497-.928.497-1.484 0-1.361-1.118-2.474-2.484-2.474s-2.484 1.113-2.484 2.474c0 .557.186 1.051.497 1.484.186.247.124.68-.124.866s-.683.124-.869-.124c-.497-.619-.745-1.423-.745-2.227 0-1.83 1.349-3.361 3.104-3.658v-6.52l-12.21 12.652h5.877c.559 0 .993.247 1.304.742.248.433.31.99.062 1.423l-2.082 5.876zM5.603 30.763H24.2c-.382-.514-.606-1.154-.606-1.856s.224-1.342.606-1.856H5.603c.382.514.606 1.154.606 1.856s-.224 1.342-.606 1.856zM30.672 1.754L18.018 14.915l.226 1.006.445 1.853H19L32.66 3.548c.248-.247.373-.619.373-.99s-.186-.742-.497-.928a1.424 1.424 0 00-1.863.124zM9.934 3.548c-.683 0-1.242.557-1.242 1.237v1.237h2.484V4.785c0-.68-.559-1.237-1.242-1.237zM4.346 8.496v9.278h13.039l-2.173-9.525a1.268 1.268 0 00-1.242-.99H5.588c-.683 0-1.242.557-1.242 1.237zm13.66 15.463H4.346v1.856h19.993c.124 0 .186-.062.248-.124l2.235-6.247c.062-.124 0-.247 0-.247 0-.062-.124-.124-.248-.124H4.346v1.175h9.934c.373 0 .621.247.621.619s-.248.619-.621.619H4.346v1.237h13.66c.373 0 .621.247.621.619s-.248.618-.621.618zM1.242 28.907c0 1.051.807 1.856 1.863 1.856s1.863-.804 1.863-1.856-.807-1.856-1.863-1.856-1.863.804-1.863 1.856zm23.594 0c0 1.052.807 1.856 1.863 1.856s1.863-.804 1.863-1.856-.807-1.856-1.863-1.856-1.863.804-1.863 1.856z"/><path fill="var(--color1, #86adef)" d="M36.627 19.391l.604 2.453a.5.5 0 01-.181.552l-1.811 1.84c-.121.061-.241.123-.423.123h-.121l-3.019-.613a.691.691 0 01-.483-.429l-.604-2.453a.5.5 0 01.181-.552l2.415-2.453a.635.635 0 01.724-.123l2.415 1.226a.46.46 0 01.302.429zM32.28 22.58l2.355.491 1.328-1.349-.483-1.84-1.751-.92-1.872 1.901.423 1.717z"/></symbol><symbol id="icon-worker" viewBox="0 0 26 32"><path fill="var(--color1, #86adef)" d="M13.001 19.5c-3.146 0-5.734-2.461-5.973-5.576a2.656 2.656 0 01-1.999-1.734.514.514 0 11.969-.344 1.62 1.62 0 001.525 1.09c.283 0 .513.232.513.518 0 2.763 2.227 5.01 4.964 5.01s4.965-2.248 4.965-5.01c0-.286.23-.518.514-.518a1.62 1.62 0 001.523-1.083.514.514 0 11.968.349 2.66 2.66 0 01-1.995 1.723c-.239 3.116-2.827 5.576-5.974 5.576zm6.992-10H5.507A.508.508 0 015 8.991c0-3.508 2.244-6.511 5.584-7.472a.508.508 0 01.279.978c-2.738.788-4.627 3.157-4.831 5.985h13.435c-.203-2.801-2.069-5.163-4.772-5.968a.51.51 0 01.289-.976c3.299.982 5.516 3.977 5.516 7.453a.508.508 0 01-.507.509z"/><path fill="var(--color1, #86adef)" d="M11 9.5h3.5c.276 0 .5-.229.5-.512V.682a.51.51 0 00-.393-.5c-.504-.113-1.215-.183-1.857-.183s-1.353.07-1.857.183a.509.509 0 00-.393.5v8.306c0 .283.224.512.5.512zm3-1.024h-2.5V1.111a9.426 9.426 0 012.5 0v7.365zm6-.976h-2.5a.5.5 0 010-1H20a.5.5 0 010 1zm-12 0H6a.5.5 0 010-1h2a.5.5 0 010 1z"/><path fill="var(--color1, #86adef)" d="M4.014 12h17.973a.507.507 0 00.514-.5V9c0-.276-.23-.5-.514-.5H4.014A.507.507 0 003.5 9v2.5c0 .276.23.5.514.5zm17.459-1H4.528V9.5h16.945V11zm-8.145 11c-1.811 0-3.664-.795-4.724-2.004a9.472 9.472 0 00-.951.217c-.268.077-.551-.066-.631-.319s.071-.52.339-.596c.455-.13.921-.228 1.385-.294a.526.526 0 01.488.196c.82 1.085 2.504 1.844 4.095 1.844 1.501 0 2.869-.672 3.755-1.841a.519.519 0 01.488-.195c.355.051.71.121 1.054.209.27.069.43.332.357.586s-.351.407-.622.336a9.052 9.052 0 00-.647-.14c-1.079 1.275-2.66 2-4.386 2zM25 30h-5c-.276 0-.5-.23-.5-.515s.224-.515.5-.515h4.5v-.637c0-3.036-1.486-5.795-3.975-7.38-.235-.149-.308-.467-.162-.709s.454-.317.688-.167c2.786 1.774 4.448 4.86 4.448 8.256v1.152a.507.507 0 01-.5.514zM5.506 30H.495a.5.5 0 01-.494-.505v-1.13c0-3.055 1.565-5.962 4.187-7.778.227-.156.534-.096.686.135s.094.545-.132.701C2.392 23.051.989 25.645.989 28.365v.625h4.517c.273 0 .494.226.494.505S5.779 30 5.506 30z"/><path fill="var(--color1, #86adef)" d="M5.822 32h13.356a.51.51 0 00.51-.45l1.309-11.883a.5.5 0 00-.138-.402l-1.552-1.608a.517.517 0 00-.85.164l-2.422 6.107h-7.07l-2.422-6.107a.516.516 0 00-.85-.164l-1.552 1.608a.5.5 0 00-.138.402L5.312 31.55a.51.51 0 00.51.45zm12.896-1.009H6.282L5.048 19.79l.833-.862 2.256 5.688a.513.513 0 00.478.321h7.771a.513.513 0 00.478-.321l2.256-5.688.833.862-1.234 11.201z"/></symbol></defs></svg>